<svg xmlns="http://www.w3.org/2000/svg" viewBox="0 0 500 500" width="500" height="500" preserveAspectRatio="xMidYMid meet" style="width: 100%; height: 100%; transform: translate3d(0px, 0px, 0px);"><defs><clipPath id="__lottie_element_2"><rect width="500" height="500" x="0" y="0"></rect></clipPath></defs><g clip-path="url(#__lottie_element_2)"><g transform="matrix(1,0,0,1,-1.5,-4)" opacity="1" style="display: block;"><g opacity="1" transform="matrix(1,0,0,1,251.36000061035156,253.86199951171875)"><path fill="rgb(6,31,128)" fill-opacity="1" d=" M177.8209991455078,-106.51499938964844 C181.99600219726562,-106.14800262451172 187.781005859375,-105.4209976196289 192.072998046875,-104.8270034790039 C192.072998046875,-104.8270034790039 192.072998046875,-104.81999969482422 192.072998046875,-104.81999969482422 C192.072998046875,-104.81999969482422 192.06900024414062,-104.82099914550781 192.06900024414062,-104.82099914550781 C193.08599853515625,-104.68000030517578 194.58799743652344,-104.53700256347656 196.17300415039062,-104.38700103759766 C198.47500610351562,-104.16799926757812 200.95700073242188,-103.93299865722656 202.4040069580078,-103.66000366210938 C202.22900390625,-103.23699951171875 200.99899291992188,-101.0780029296875 199.01699829101562,-97.60900115966797 C199.01699829101562,-97.60900115966797 199.01699829101562,-97.6050033569336 199.01699829101562,-97.6050033569336 C199.01699829101562,-97.6050033569336 199.01300048828125,-97.60299682617188 199.01300048828125,-97.60299682617188 C199.01300048828125,-97.60299682617188 199.01300048828125,-97.5999984741211 199.01300048828125,-97.5999984741211 C199.01300048828125,-97.5999984741211 199.01300048828125,-97.59700012207031 199.01300048828125,-97.59700012207031 C193.64500427246094,-88.19000244140625 182.78799438476562,-69.16400146484375 172.58999633789062,-48.94599914550781 C160.54200744628906,-23.80500030517578 155.5260009765625,-12.730999946594238 151.01800537109375,-2.628000020980835 C147.80499267578125,-2.5969998836517334 138.7729949951172,-2.0739998817443848 136.02099609375,-1.8220000267028809 C134.0540008544922,-1.6410000324249268 132.0780029296875,-1.4160000085830688 130.11399841308594,-1.1480000019073486 C130.27499389648438,-6.695000171661377 130.48500061035156,-12.977999687194824 130.74899291992188,-20.006999969482422 C131.0709991455078,-28.702999114990234 131.6060028076172,-37.869998931884766 132.33299255371094,-47.25600051879883 C132.33299255371094,-47.25600051879883 133.58200073242188,-63.417999267578125 133.58200073242188,-63.417999267578125 C133.58200073242188,-63.417999267578125 126.09500122070312,-48.737998962402344 126.09500122070312,-48.737998962402344 C124.1719970703125,-44.970001220703125 122.06500244140625,-40.9379997253418 119.68000030517578,-36.448001861572266 C119.68000030517578,-36.448001861572266 112.73699951171875,-23.37299919128418 112.73699951171875,-23.37299919128418 C110.33699798583984,-18.844999313354492 107.97699737548828,-14.3100004196167 105.66500091552734,-9.77400016784668 C105.66500091552734,-9.77400016784668 105.1240005493164,-8.715999603271484 105.1240005493164,-8.715999603271484 C105.1240005493164,-8.715999603271484 103.54100036621094,-5.613999843597412 103.54100036621094,-5.613999843597412 C103.54100036621094,-5.613999843597412 103.53900146484375,-5.610000133514404 103.53900146484375,-5.610000133514404 C102.2979965209961,-3.177000045776367 101.10099792480469,-0.8289999961853027 99.94400024414062,1.4259999990463257 C98.63999938964844,1.4910000562667847 97.40899658203125,1.5800000429153442 96.26799774169922,1.6890000104904175 C94.56999969482422,1.847000002861023 92.89700317382812,2.009000062942505 91.23999786376953,2.1710000038146973 C89.45600128173828,2.3469998836517334 87.625,2.625999927520752 85.8030014038086,2.996999979019165 C85.8030014038086,2.996999979019165 85.27300262451172,3.1059999465942383 85.27300262451172,3.1059999465942383 C85.27300262451172,3.1059999465942383 85.26799774169922,3.1059999465942383 85.26799774169922,3.1059999465942383 C84.80899810791016,3.200000047683716 84.33599853515625,3.2960000038146973 83.8499984741211,3.3989999294281006 C83.17900085449219,-15.461999893188477 82.8290023803711,-34.62900161743164 82.80999755859375,-53.625 C82.79100036621094,-74.02799987792969 83.2760009765625,-94.25499725341797 84.25800323486328,-113.78600311279297 C88.88999938964844,-113.9209976196289 93.55400085449219,-113.91600036621094 98.15599822998047,-113.77100372314453 C102.55400085449219,-113.63200378417969 107.12300109863281,-113.29900360107422 111.79000091552734,-112.822998046875 C111.12100219726562,-109.26300048828125 110.51300048828125,-105.49500274658203 109.9749984741211,-101.58599853515625 C109.27899932861328,-96.55599975585938 108.64199829101562,-91.45099639892578 108.0790023803711,-86.40699768066406 C107.51000213623047,-81.36399841308594 106.99199676513672,-76.2300033569336 106.53600311279297,-71.15699768066406 C106.0790023803711,-66.08799743652344 105.68599700927734,-61.27399826049805 105.34600067138672,-56.69900131225586 C105.34600067138672,-56.69900131225586 104.15399932861328,-40.67599868774414 104.15399932861328,-40.67599868774414 C104.15399932861328,-40.67599868774414 111.5770034790039,-55.22999954223633 111.5770034790039,-55.22999954223633 C114.39900207519531,-60.75400161743164 120.34700012207031,-75.78600311279297 125.52999877929688,-88.88500213623047 C129.04400634765625,-97.76399993896484 132.20599365234375,-105.75499725341797 133.80499267578125,-109.29399871826172 C135.16000366210938,-109.27999877929688 138.71400451660156,-108.90399932861328 141.78900146484375,-108.5790023803711 C143.6230010986328,-108.38600158691406 145.28500366210938,-108.20999908447266 146.20799255371094,-108.13999938964844 C148.3979949951172,-107.97200012207031 150.58599853515625,-107.7509994506836 152.74000549316406,-107.48400115966797 C152.35499572753906,-104.1969985961914 151.97999572753906,-100.79399871826172 151.6219940185547,-97.28399658203125 C151.156005859375,-92.73799896240234 150.73500061035156,-88.16500091552734 150.36700439453125,-83.55400085449219 C149.9949951171875,-78.94000244140625 149.6739959716797,-74.45700073242188 149.41200256347656,-70.10399627685547 C149.1439971923828,-65.75700378417969 148.92300415039062,-61.69300079345703 148.73300170898438,-57.917999267578125 C148.73300170898438,-57.917999267578125 147.98599243164062,-42.904998779296875 147.98599243164062,-42.904998779296875 C147.98599243164062,-42.904998779296875 154.9720001220703,-56.50199890136719 154.9720001220703,-56.50199890136719 C159.5229949951172,-65.37300109863281 163.9720001220703,-74.322998046875 168.18099975585938,-83.10600280761719 C168.18099975585938,-83.10600280761719 175.63099670410156,-101.93900299072266 177.8209991455078,-106.51499938964844z M234.39500427246094,-99.63400268554688 C233.47300720214844,-99.83699798583984 232.54299926757812,-100.03299713134766 231.5959930419922,-100.21600341796875 C228.5850067138672,-100.79499816894531 225.54400634765625,-101.05000305175781 222.50399780273438,-101.03600311279297 C220.90199279785156,-101.0250015258789 219.30499267578125,-100.96800231933594 217.71099853515625,-100.79100036621094 C217.71099853515625,-100.79100036621094 216.05599975585938,-100.60800170898438 216.05599975585938,-100.60800170898438 C216.05599975585938,-100.60800170898438 215.41299438476562,-99.07599639892578 215.41299438476562,-99.07599639892578 C215.15899658203125,-98.4749984741211 214.89599609375,-97.79499816894531 214.62100219726562,-97.07099914550781 C214.05799865722656,-95.56700134277344 213.44500732421875,-93.83799743652344 212.80599975585938,-91.8489990234375 C212.09300231933594,-89.65499877929688 211.3419952392578,-87.20099639892578 210.5500030517578,-84.52200317382812 C210.2830047607422,-83.61499786376953 210.01199340820312,-82.68399810791016 209.74099731445312,-81.72699737548828 C208.63999938964844,-77.88400268554688 207.54299926757812,-73.79499816894531 206.47900390625,-69.56500244140625 C205.9409942626953,-67.41899871826172 205.41600036621094,-65.23699951171875 204.88999938964844,-63.05099868774414 C204.72300720214844,-62.35300064086914 204.55599975585938,-61.65399932861328 204.38499450683594,-60.95600128173828 C204.218994140625,-60.2599983215332 204.0469970703125,-59.57099914550781 203.88099670410156,-58.88100051879883 C203.68499755859375,-58.09199905395508 203.4929962158203,-57.303001403808594 203.30099487304688,-56.5 C202.27099609375,-52.13199996948242 201.30299377441406,-47.70199966430664 200.41900634765625,-43.340999603271484 C200.33999633789062,-42.95600128173828 200.2689971923828,-42.58300018310547 200.197998046875,-42.21200180053711 C200.197998046875,-42.21200180053711 200.19400024414062,-42.202999114990234 200.19400024414062,-42.202999114990234 C200.19400024414062,-42.202999114990234 200.19400024414062,-42.19599914550781 200.19400024414062,-42.19599914550781 C200.1230010986328,-41.83599853515625 200.05599975585938,-41.47800064086914 199.9810028076172,-41.11399841308594 C199.53500366210938,-38.84600067138672 199.11300659179688,-36.654998779296875 198.72500610351562,-34.51900100708008 C198.72500610351562,-34.51900100708008 198.5500030517578,-33.57099914550781 198.5500030517578,-33.57099914550781 C198.4080047607422,-32.79999923706055 198.26699829101562,-32.027000427246094 198.13699340820312,-31.288000106811523 C198.13699340820312,-31.288000106811523 197.46200561523438,-27.415000915527344 197.46200561523438,-27.415000915527344 C197.46200561523438,-27.415000915527344 201.3699951171875,-28.016000747680664 201.3699951171875,-28.016000747680664 C203.6719970703125,-28.368999481201172 205.87899780273438,-28.547000885009766 207.93499755859375,-28.542999267578125 C208.17300415039062,-28.542999267578125 208.43099975585938,-28.527000427246094 208.69000244140625,-28.510000228881836 C208.8730010986328,-28.49799919128418 209.06100463867188,-28.48699951171875 209.24000549316406,-28.481000900268555 C210.9669952392578,-28.41200065612793 212.81900024414062,-28.25200080871582 214.85899353027344,-27.937999725341797 C214.85899353027344,-27.937999725341797 217.1820068359375,-27.579999923706055 217.1820068359375,-27.579999923706055 C217.1820068359375,-27.579999923706055 217.96600341796875,-29.78499984741211 217.96600341796875,-29.78499984741211 C219.4550018310547,-33.98500061035156 221.19400024414062,-38.68600082397461 223.14599609375,-43.76100158691406 C225.19400024414062,-49.09199905395508 227.40899658203125,-54.608001708984375 229.73599243164062,-60.16400146484375 C230.1529998779297,-61.1510009765625 230.58299255371094,-62.13999938964844 231.01699829101562,-63.12900161743164 C231.01699829101562,-63.12900161743164 231.01699829101562,-63.13199996948242 231.01699829101562,-63.13199996948242 C231.01699829101562,-63.13199996948242 231.29200744628906,-63.76499938964844 231.29200744628906,-63.76499938964844 C231.29200744628906,-63.76499938964844 231.52099609375,-64.29000091552734 231.52099609375,-64.29000091552734 C233.3820037841797,-68.60700225830078 235.29200744628906,-72.91999816894531 237.27699279785156,-77.16400146484375 C237.76100158691406,-78.19999694824219 238.2530059814453,-79.22200012207031 238.7449951171875,-80.24600219726562 C238.7449951171875,-80.24600219726562 238.87100219726562,-80.50700378417969 238.87100219726562,-80.50700378417969 C240.9810028076172,-84.87799835205078 243.14999389648438,-89.11499786376953 245.3560028076172,-93.1259994506836 C245.3560028076172,-93.1259994506836 246.3489990234375,-94.93699645996094 246.3489990234375,-94.93699645996094 C246.3489990234375,-94.93699645996094 247,-96.11799621582031 247,-96.11799621582031 C247,-96.11799621582031 246.64500427246094,-96.2300033569336 246.64500427246094,-96.2300033569336 C246.64500427246094,-96.2300033569336 243.72999572753906,-97.16300201416016 243.72999572753906,-97.16300201416016 C243.24200439453125,-97.31600189208984 242.74099731445312,-97.46299743652344 242.24099731445312,-97.61000061035156 C242.24099731445312,-97.61000061035156 241.8939971923828,-97.71199798583984 241.8939971923828,-97.71199798583984 C239.50399780273438,-98.4219970703125 237.0019989013672,-99.06800079345703 234.39500427246094,-99.63600158691406 C234.39500427246094,-99.63600158691406 234.39500427246094,-99.63400268554688 234.39500427246094,-99.63400268554688z M63.31999969482422,-95.58399963378906 C60.08000183105469,-100.7750015258789 55.5890007019043,-104.97599792480469 49.96900177001953,-108.07499694824219 C44.10599899291992,-111.302001953125 36.91400146484375,-112.97899627685547 28.604999542236328,-113.05400085449219 C20.03499984741211,-113.12699890136719 11.6899995803833,-111.65599822998047 3.805999994277954,-108.68199920654297 C-4.324999809265137,-105.61499786376953 -11.680000305175781,-100.9530029296875 -18.048999786376953,-94.81600189208984 C-24.597000122070312,-88.50700378417969 -29.95599937438965,-80.58399963378906 -33.9739990234375,-71.25599670410156 C-38.04199981689453,-61.8129997253418 -40.400001525878906,-50.762001037597656 -40.97600173950195,-38.41400146484375 C-41.428001403808594,-29.070999145507812 -40.48699951171875,-20.19700050354004 -38.165000915527344,-12.029999732971191 C-35.93199920654297,-4.168000221252441 -32.5880012512207,2.5230000019073486 -28.232999801635742,7.868000030517578 C-24.075000762939453,12.968999862670898 -18.947999954223633,16.684999465942383 -12.982000350952148,18.905000686645508 C-7.192999839782715,21.06999969482422 -0.7649999856948853,21.375999450683594 6.665999889373779,19.851999282836914 C15.369000434875488,18.062999725341797 23.024999618530273,15.006999969482422 30.058000564575195,10.508000373840332 C36.84400177001953,6.170000076293945 42.893001556396484,0.7390000224113464 48.0260009765625,-5.61899995803833 C53.10100173950195,-11.902000427246094 57.45199966430664,-19.195999145507812 60.96200180053711,-27.305999755859375 C64.4729995727539,-35.42499923706055 67.052001953125,-44.32500076293945 68.63400268554688,-53.75600051879883 C70.05799865722656,-62.28799819946289 70.33399963378906,-70.18000030517578 69.45600128173828,-77.21099853515625 C68.572998046875,-84.28199768066406 66.50900268554688,-90.46099853515625 63.31999969482422,-95.5739974975586 C63.31999969482422,-95.5739974975586 63.31999969482422,-95.58399963378906 63.31999969482422,-95.58399963378906z M40.59700012207031,-49.694000244140625 C39.8390007019043,-45.24300003051758 38.540000915527344,-40.904998779296875 36.72999954223633,-36.75 C34.92399978637695,-32.60200119018555 32.72999954223633,-28.81999969482422 30.20599937438965,-25.496000289916992 C27.645000457763672,-22.12700080871582 24.781999588012695,-19.2189998626709 21.69099998474121,-16.854000091552734 C18.39900016784668,-14.333000183105469 14.973999977111816,-12.730999946594238 11.501999855041504,-12.095999717712402 C9.89799976348877,-11.798999786376953 8.354000091552734,-11.737000465393066 6.868000030517578,-11.897000312805176 C4.861000061035156,-12.116999626159668 2.9690001010894775,-12.755000114440918 1.2089999914169312,-13.809000015258789 C-1.6990000009536743,-15.545999526977539 -4.109000205993652,-18.054000854492188 -5.9629998207092285,-21.259000778198242 C-7.751999855041504,-24.358999252319336 -9.03499984741211,-27.961000442504883 -9.767999649047852,-31.95800018310547 C-10.508999824523926,-35.99700164794922 -10.527000427246094,-40.24399948120117 -9.810999870300293,-44.58599853515625 C-9.279000282287598,-48.96699905395508 -8.196999549865723,-53.41299819946289 -6.605000019073486,-57.691001892089844 C-4.999000072479248,-62.000999450683594 -2.8980000019073486,-65.92500305175781 -0.35199999809265137,-69.3550033569336 C2.2320001125335693,-72.83699798583984 5.309000015258789,-75.6989974975586 8.788000106811523,-77.86100006103516 C12.355999946594238,-80.08100128173828 16.323999404907227,-81.29399871826172 20.58799934387207,-81.46199798583984 C24.613000869750977,-81.61599731445312 28.1560001373291,-80.8270034790039 31.108999252319336,-79.10900115966797 C34.02199935913086,-77.40899658203125 36.32600021362305,-74.98699951171875 37.96900177001953,-71.89399719238281 C39.5099983215332,-68.98999786376953 40.516998291015625,-65.55899810791016 40.96200180053711,-61.69499969482422 C41.387001037597656,-57.95800018310547 41.26300048828125,-53.917999267578125 40.59400177001953,-49.691001892089844 C40.59400177001953,-49.691001892089844 40.59700012207031,-49.694000244140625 40.59700012207031,-49.694000244140625z M-224.5570068359375,9.008999824523926 C-233.22799682617188,-18.628000259399414 -240.77699279785156,-46.00600051879883 -247,-72.4280014038086 C-247,-72.4280014038086 -246.99000549316406,-72.43800354003906 -246.99000549316406,-72.43800354003906 C-246.99000549316406,-72.43800354003906 -246.9969940185547,-72.43800354003906 -246.9969940185547,-72.43800354003906 C-237.80599975585938,-75.4489974975586 -228.44500732421875,-78.16600036621094 -219.13699340820312,-80.5199966430664 C-210.2729949951172,-82.75900268554688 -201.01800537109375,-84.70099639892578 -191.59500122070312,-86.302001953125 C-191.4219970703125,-81.03700256347656 -191.03199768066406,-75.49299621582031 -190.43899536132812,-69.77100372314453 C-189.72799682617188,-62.90800094604492 -188.8820037841797,-55.95100021362305 -187.927001953125,-49.084999084472656 C-186.97999572753906,-42.284000396728516 -185.90699768066406,-35.334999084472656 -184.73199462890625,-28.440000534057617 C-183.5959930419922,-21.760000228881836 -182.41299438476562,-15.208999633789062 -181.21499633789062,-8.975000381469727 C-181.21499633789062,-8.975000381469727 -179.07000732421875,2.1670000553131104 -179.07000732421875,2.1670000553131104 C-179.07000732421875,2.1670000553131104 -175.71600341796875,-8.668000221252441 -175.71600341796875,-8.668000221252441 C-171.31300354003906,-22.89699935913086 -166.64599609375,-37.479000091552734 -161.84500122070312,-52.007999420166016 C-157.5709991455078,-64.9489974975586 -152.9499969482422,-78.12200164794922 -148.1009979248047,-91.18199920654297 C-143.77499389648438,-92.2020034790039 -139.0229949951172,-93.12799835205078 -133.9669952392578,-93.94999694824219 C-129.30999755859375,-94.70500183105469 -124.62699890136719,-95.33000183105469 -120.00599670410156,-95.82599639892578 C-119.4749984741211,-91.0989990234375 -118.87799835205078,-86.23999786376953 -118.23200225830078,-81.34400177001953 C-117.46199798583984,-75.49299621582031 -116.57099914550781,-69.40299987792969 -115.5780029296875,-63.24700164794922 C-114.59400177001953,-57.15800094604492 -113.56199645996094,-51.22800064086914 -112.50900268554688,-45.62099838256836 C-111.44499969482422,-39.93299865722656 -110.41400146484375,-34.63399887084961 -109.4209976196289,-29.71500015258789 C-109.4209976196289,-29.71500015258789 -107.31600189208984,-19.26799964904785 -107.31600189208984,-19.26799964904785 C-107.31600189208984,-19.26799964904785 -103.94599914550781,-29.375999450683594 -103.94599914550781,-29.375999450683594 C-99.4800033569336,-42.7859992980957 -95.26799774169922,-55.86800003051758 -91.4280014038086,-68.26899719238281 C-87.68900299072266,-80.34300231933594 -84.02200317382812,-91.9280014038086 -80.59200286865234,-102.71099853515625 C-72.93499755859375,-103.56199645996094 -65.08000183105469,-104.2509994506836 -57.220001220703125,-104.76300048828125 C-50.500999450683594,-105.20099639892578 -43.80099868774414,-105.38500213623047 -37.23500061035156,-105.31199645996094 C-42.1150016784668,-95.00800323486328 -46.85300064086914,-84.50399780273438 -51.3380012512207,-74.0270004272461 C-56.64799880981445,-61.61199951171875 -61.77899932861328,-49.112998962402344 -66.58399963378906,-36.87900161743164 C-71.88099670410156,-23.402999877929688 -76.96800231933594,-10.019000053405762 -81.68900299072266,2.9010000228881836 C-86.08799743652344,14.937999725341797 -91.2979965209961,29.233999252319336 -96.71800231933594,44.48099899291992 C-102.33300018310547,46.02000045776367 -107.58699798583984,47.680999755859375 -112.34500122070312,49.428001403808594 C-116.41200256347656,50.915000915527344 -120.45999908447266,52.5359992980957 -124.4260025024414,54.25199890136719 C-126.31400299072266,46.483001708984375 -128.39300537109375,37.70399856567383 -130.61300659179688,28.094999313354492 C-133.26400756835938,16.6299991607666 -135.72500610351562,4.519999980926514 -137.93099975585938,-7.914000034332275 C-137.93099975585938,-7.914000034332275 -139.9530029296875,-19.28700065612793 -139.9530029296875,-19.28700065612793 C-139.9530029296875,-19.28700065612793 -143.43499755859375,-8.27400016784668 -143.43499755859375,-8.27400016784668 C-145.25399780273438,-2.5179998874664307 -147.281005859375,3.686000108718872 -149.4739990234375,10.357000350952148 C-151.70199584960938,17.11400032043457 -153.93299865722656,23.993999481201172 -156.17999267578125,31.003999710083008 C-158.46400451660156,38.159000396728516 -160.66000366210938,45.3380012512207 -162.6999969482422,52.345001220703125 C-164.63800048828125,59.01300048828125 -166.4510040283203,65.31999969482422 -168.14500427246094,71.26200103759766 C-170.87100219726562,72.27200317382812 -173.44400024414062,73.29199981689453 -175.7969970703125,74.29499816894531 C-178.53399658203125,75.46099853515625 -181.24099731445312,76.63200378417969 -183.9250030517578,77.80599975585938 C-186.7030029296875,79.02100372314453 -189.50900268554688,80.40699768066406 -192.25999450683594,81.90599822998047 C-194.20399475097656,82.97200012207031 -196.3159942626953,84.13700103759766 -198.58900451660156,85.41899871826172 C-207.90199279785156,59.95199966430664 -216.63400268554688,34.26499938964844 -224.5570068359375,9.008999824523926z M-12.470000267028809,113.9209976196289 C-12.470000267028809,113.9209976196289 -39.797000885009766,113.9209976196289 -39.797000885009766,113.9209976196289 C-39.797000885009766,113.9209976196289 -27.698999404907227,41.04499816894531 -27.698999404907227,41.04499816894531 C-27.698999404907227,41.04499816894531 -1.190000057220459,41.04499816894531 -1.190000057220459,41.04499816894531 C6.211999893188477,41.04499816894531 12.378999710083008,42.55099868774414 17.312999725341797,45.56399917602539 C22.270999908447266,48.553001403808594 25.770000457763672,52.84700012207031 27.809999465942383,58.44499969482422 C29.874000549316406,64.0199966430664 30.266000747680664,70.66200256347656 28.985000610351562,78.37200164794922 C27.750999450683594,85.8219985961914 25.27199935913086,92.2030029296875 21.54800033569336,97.51699829101562 C17.847000122070312,102.83100128173828 13.102999687194824,106.89900207519531 7.314000129699707,109.72200012207031 C1.5260000228881836,112.52100372314453 -5.067999839782715,113.9209976196289 -12.470000267028809,113.9209976196289z M-19.729000091552734,98.90499877929688 C-19.729000091552734,98.90499877929688 -11.366999626159668,98.90499877929688 -11.366999626159668,98.90499877929688 C-7.285999774932861,98.90499877929688 -3.680999994277954,98.16899871826172 -0.550000011920929,96.6989974975586 C2.6059999465942383,95.2040023803711 5.215000152587891,92.81999969482422 7.2789998054504395,89.5459976196289 C9.343000411987305,86.24800109863281 10.812999725341797,81.91899871826172 11.690999984741211,76.55799865722656 C12.545000076293945,71.43399810791016 12.510000228881836,67.38899993896484 11.585000038146973,64.42400360107422 C10.682999610900879,61.433998107910156 8.928000450134277,59.29999923706055 6.317999839782715,58.018001556396484 C3.7320001125335693,56.7140007019043 0.35199999809265137,56.06100082397461 -3.822999954223633,56.06100082397461 C-3.822999954223633,56.06100082397461 -12.576000213623047,56.06100082397461 -12.576000213623047,56.06100082397461 C-12.576000213623047,56.06100082397461 -19.729000091552734,98.90499877929688 -19.729000091552734,98.90499877929688z M33.49700164794922,113.9209976196289 C33.49700164794922,113.9209976196289 45.595001220703125,41.04499816894531 45.595001220703125,41.04499816894531 C45.595001220703125,41.04499816894531 96.40799713134766,41.04499816894531 96.40799713134766,41.04499816894531 C96.40799713134766,41.04499816894531 93.98899841308594,55.349998474121094 93.98899841308594,55.349998474121094 C93.98899841308594,55.349998474121094 60.78900146484375,55.349998474121094 60.78900146484375,55.349998474121094 C60.78900146484375,55.349998474121094 58.369998931884766,70.29499816894531 58.369998931884766,70.29499816894531 C58.369998931884766,70.29499816894531 88.97100067138672,70.29499816894531 88.97100067138672,70.29499816894531 C88.97100067138672,70.29499816894531 86.5510025024414,84.63500213623047 86.5510025024414,84.63500213623047 C86.5510025024414,84.63500213623047 55.95000076293945,84.63500213623047 55.95000076293945,84.63500213623047 C55.95000076293945,84.63500213623047 53.529998779296875,99.61599731445312 53.529998779296875,99.61599731445312 C53.529998779296875,99.61599731445312 86.72899627685547,99.61599731445312 86.72899627685547,99.61599731445312 C86.72899627685547,99.61599731445312 84.30999755859375,113.9209976196289 84.30999755859375,113.9209976196289 C84.30999755859375,113.9209976196289 33.49700164794922,113.9209976196289 33.49700164794922,113.9209976196289z M92.27400207519531,113.9209976196289 C92.27400207519531,113.9209976196289 111.2040023803711,113.9209976196289 111.2040023803711,113.9209976196289 C111.2040023803711,113.9209976196289 118.55500030517578,98.62000274658203 118.55500030517578,98.62000274658203 C118.55500030517578,98.62000274658203 143.7220001220703,98.62000274658203 143.7220001220703,98.62000274658203 C143.7220001220703,98.62000274658203 145.968994140625,113.9209976196289 145.968994140625,113.9209976196289 C145.968994140625,113.9209976196289 164.8990020751953,113.9209976196289 164.8990020751953,113.9209976196289 C164.8990020751953,113.9209976196289 152.40899658203125,41.04499816894531 152.40899658203125,41.04499816894531 C152.40899658203125,41.04499816894531 128.9600067138672,41.04499816894531 128.9600067138672,41.04499816894531 C128.9600067138672,41.04499816894531 92.27400207519531,113.9209976196289 92.27400207519531,113.9209976196289z M172.84500122070312,113.9209976196289 C172.84500122070312,113.9209976196289 184.94500732421875,41.04499816894531 184.94500732421875,41.04499816894531 C184.94500732421875,41.04499816894531 202.5590057373047,41.04499816894531 202.5590057373047,41.04499816894531 C202.5590057373047,41.04499816894531 192.8780059814453,99.61599731445312 192.8780059814453,99.61599731445312 C192.8780059814453,99.61599731445312 223.1959991455078,99.61599731445312 223.1959991455078,99.61599731445312 C223.1959991455078,99.61599731445312 220.77699279785156,113.9209976196289 220.77699279785156,113.9209976196289 C220.77699279785156,113.9209976196289 172.84500122070312,113.9209976196289 172.84500122070312,113.9209976196289z M199.78900146484375,-15.265999794006348 C201.75799560546875,-16.097999572753906 203.7969970703125,-16.43400001525879 205.86599731445312,-16.260000228881836 C205.86599731445312,-16.260000228881836 205.86599731445312,-16.256000518798828 205.86599731445312,-16.256000518798828 C205.86599731445312,-16.256000518798828 205.86199951171875,-16.243000030517578 205.86199951171875,-16.243000030517578 C206.4290008544922,-16.22599983215332 206.97500610351562,-16.152000427246094 207.51400756835938,-16.052000045776367 C208.9149932861328,-15.79699993133545 210.20399475097656,-15.281000137329102 211.35899353027344,-14.505999565124512 C212.90699768066406,-13.460000038146973 214.14100646972656,-12.081000328063965 215.03399658203125,-10.401000022888184 C215.8719940185547,-8.829000473022461 216.3979949951172,-7.007999897003174 216.6060028076172,-4.985000133514404 C216.802001953125,-3.000999927520752 216.6060028076172,-0.8579999804496765 216.01400756835938,1.378999948501587 C215.44200134277344,3.5299999713897705 214.60400390625,5.580999851226807 213.52000427246094,7.479000091552734 C212.42300415039062,9.399999618530273 211.12100219726562,11.10200023651123 209.65699768066406,12.529999732971191 C208.1479949951172,14.006999969482422 206.45399475097656,15.1899995803833 204.63099670410156,16.045000076293945 C202.72500610351562,16.93899917602539 200.78599548339844,17.413999557495117 198.85899353027344,17.46299934387207 C198.47900390625,17.450000762939453 198.10000610351562,17.423999786376953 197.73300170898438,17.385000228881836 C193.9250030517578,16.964000701904297 191.00100708007812,15.062999725341797 189.11599731445312,11.840999603271484 C187.66799926757812,9.369999885559082 187.02200317382812,6.5279998779296875 187.16799926757812,3.3589999675750732 C187.2259979248047,2.2200000286102295 187.37600708007812,1.0460000038146973 187.63499450683594,-0.17599999904632568 C188.21499633789062,-2.5399999618530273 189.11099243164062,-4.716000080108643 190.33799743652344,-6.71999979019165 C191.5469970703125,-8.697999954223633 192.96499633789062,-10.4350004196167 194.5500030517578,-11.869999885559082 C196.156005859375,-13.331000328063965 197.91600036621094,-14.475000381469727 199.78900146484375,-15.265999794006348z"></path></g></g><g transform="matrix(1,0,0,1,-1.465000033378601,-3.5899999141693115)" opacity="1" style="display: block;"><path fill="rgb(255,255,255)" fill-opacity="1" d=" M392.7569885253906,339.13800048828125 C392.7569885253906,339.13800048828125 388.9630126953125,313.3039855957031 388.9630126953125,313.3039855957031 C388.9630126953125,313.3039855957031 388.39300537109375,313.3039855957031 388.39300537109375,313.3039855957031 C388.39300537109375,313.3039855957031 375.9830017089844,339.13800048828125 375.9830017089844,339.13800048828125 C375.9830017089844,339.13800048828125 392.7569885253906,339.13800048828125 392.7569885253906,339.13800048828125z"></path></g></g></svg>